<svg width="60" height="60" viewBox="0 0 60 60" fill="none" xmlns="http://www.w3.org/2000/svg">
<rect width="60" height="60" rx="15" fill="#007698"/>
<g clip-path="url(#clip0_46084_68)">
<path d="M28.4681 16.5C27.5864 15.1202 26.3713 13.9846 24.935 13.1981C23.4987 12.4117 21.8875 11.9996 20.25 12C19.5216 13.2593 19.0847 14.6659 18.9715 16.1163C18.8582 17.5668 19.0715 19.0241 19.5956 20.3812C18.5695 21.8923 18.0143 23.6735 18 25.5V27C18 29.3869 18.9482 31.6761 20.636 33.364C22.3239 35.0518 24.6131 36 27 36H36C38.3869 36 40.6761 35.0518 42.364 33.364C44.0518 31.6761 45 29.3869 45 27V25.5C44.9857 23.6735 44.4305 21.8923 43.4044 20.3812C43.9285 19.0241 44.1418 17.5668 44.0285 16.1163C43.9153 14.6659 43.4784 13.2593 42.75 12C41.1125 11.9996 39.5013 12.4117 38.065 13.1981C36.6287 13.9846 35.4136 15.1202 34.5319 16.5H28.4681Z" stroke="white" stroke-width="2" stroke-linecap="round" stroke-linejoin="round"/>
<path d="M25.5 49.5V42C25.5 40.4087 26.1321 38.8826 27.2574 37.7574C28.3826 36.6321 29.9087 36 31.5 36C33.0913 36 34.6174 36.6321 35.7426 37.7574C36.8679 38.8826 37.5 40.4087 37.5 42V49.5" stroke="white" stroke-width="2" stroke-linecap="round" stroke-linejoin="round"/>
<path d="M25.5 45H19.5C17.9087 45 16.3826 44.3679 15.2574 43.2426C14.1321 42.1174 13.5 40.5913 13.5 39C13.5 37.4087 12.8679 35.8826 11.7426 34.7574C10.6174 33.6321 9.0913 33 7.5 33" stroke="white" stroke-width="2" stroke-linecap="round" stroke-linejoin="round"/>
</g>
<defs>
<clipPath id="clip0_46084_68">
<rect width="48" height="48" fill="white" transform="translate(6 6)"/>
</clipPath>
</defs>
</svg>
